<svg version="1.1" xmlns="http://www.w3.org/2000/svg" viewBox="0 0 4564.173904725918 1523.2696464356297" width="4564.173904725918" height="1523.2696464356297">
  <!-- svg-source:excalidraw -->

  <defs>
    <style class="style-fonts">
      @font-face {
        font-family: "Virgil";
        src: url("https://excalidraw.com/Virgil.woff2");
      }
      @font-face {
        font-family: "Cascadia";
        src: url("https://excalidraw.com/Cascadia.woff2");
      }
    </style>
  </defs>
  <rect x="0" y="0" width="4564.173904725918" height="1523.2696464356297" fill="#ffffff"></rect><g stroke-linecap="round" transform="translate(10 886.7913739075628) rotate(0 294.7841697843942 86.11790782104418)"><path d="M32 0 M32 0 C218.95 2.1, 407.17 1.99, 557.57 0 M32 0 C203.74 0.58, 375.46 -0.01, 557.57 0 M557.57 0 C578.05 1.78, 587.64 9.3, 589.57 32 M557.57 0 C577.77 -1.5, 587.53 10.03, 589.57 32 M589.57 32 C587.95 72.76, 589.24 113.07, 589.57 140.24 M589.57 32 C589.37 56.76, 589.28 80.13, 589.57 140.24 M589.57 140.24 C589.62 159.83, 579.23 172.74, 557.57 172.24 M589.57 140.24 C590.16 159.28, 581.1 170.59, 557.57 172.24 M557.57 172.24 C347.19 173.73, 138.02 173.42, 32 172.24 M557.57 172.24 C369.98 172.21, 182.1 172.05, 32 172.24 M32 172.24 C10.27 171.85, -0.76 161.25, 0 140.24 M32 172.24 C11.58 170.79, -0.55 162.68, 0 140.24 M0 140.24 C0.53 108.35, -1.47 79.99, 0 32 M0 140.24 C0.22 111.98, 0.49 83.21, 0 32 M0 32 C-0.06 12.24, 10.24 -0.15, 32 0 M0 32 C-0.55 12.1, 10.64 -1.88, 32 0" stroke="#000000" stroke-width="1" fill="none"></path></g><g transform="translate(32.699213588659404 929.8999574817472) rotate(0 228.5 41.5)"><text x="228.5" y="33.5" font-family="Helvetica, Segoe UI Emoji" font-size="36px" fill="#000000" text-anchor="middle" style="white-space: pre;" direction="ltr">calculate target stock metric </text><text x="228.5" y="75" font-family="Helvetica, Segoe UI Emoji" font-size="36px" fill="#000000" text-anchor="middle" style="white-space: pre;" direction="ltr">time series</text></g><g stroke-linecap="round" transform="translate(1827.4018924265129 500.4199871783933) rotate(0 301.51278996840483 72.5816311940091)"><path d="M32 0 M32 0 C179.48 -0.74, 326.32 -0.61, 571.03 0 M32 0 C147.14 0.4, 261.85 0.02, 571.03 0 M571.03 0 C594.22 1.4, 602.71 10.49, 603.03 32 M571.03 0 C591.57 1.65, 604 11.19, 603.03 32 M603.03 32 C604.13 61.67, 602.48 95.18, 603.03 113.16 M603.03 32 C603.04 50.8, 601.62 70.55, 603.03 113.16 M603.03 113.16 C603.16 135.21, 590.71 144.63, 571.03 145.16 M603.03 113.16 C604.72 132.64, 590.93 143.61, 571.03 145.16 M571.03 145.16 C436.87 143.24, 302.37 143.57, 32 145.16 M571.03 145.16 C427.72 145.92, 284.08 146.03, 32 145.16 M32 145.16 C12.32 144.92, 0.22 133.63, 0 113.16 M32 145.16 C8.45 144.07, -0.29 132.88, 0 113.16 M0 113.16 C1.49 84.34, 0.62 52.2, 0 32 M0 113.16 C0.22 81.29, -0.7 47.86, 0 32 M0 32 C0.16 12.51, 9.52 -0.82, 32 0 M0 32 C-0.88 9.7, 11.98 -0.34, 32 0" stroke="#000000" stroke-width="1" fill="none"></path></g><g stroke-linecap="round" transform="translate(734.2039722562185 887.054828104274) rotate(0 324.5650321806579 82.803654026414)"><path d="M32 0 M32 0 C256 -0.75, 480 -0.45, 617.13 0 M32 0 C182.11 2.05, 333 2.24, 617.13 0 M617.13 0 C638.83 -1.44, 650.92 11.92, 649.13 32 M617.13 0 C637.8 0.75, 647.13 9.81, 649.13 32 M649.13 32 C648.52 68.78, 648.31 106.48, 649.13 133.61 M649.13 32 C650.01 70.3, 649.27 109.34, 649.13 133.61 M649.13 133.61 C648.83 155.26, 639.98 163.87, 617.13 165.61 M649.13 133.61 C650.3 155.66, 640.47 164.15, 617.13 165.61 M617.13 165.61 C444.76 164.67, 273.13 164.25, 32 165.61 M617.13 165.61 C465.16 167.76, 312.89 168.16, 32 165.61 M32 165.61 C10.13 167.41, 1.55 156.24, 0 133.61 M32 165.61 C9.97 165.77, 0.02 155.53, 0 133.61 M0 133.61 C2.29 103.12, 0.6 75.22, 0 32 M0 133.61 C1.1 94.29, 1.15 55.1, 0 32 M0 32 C1.75 10.69, 10.76 1.88, 32 0 M0 32 C1.36 12.81, 8.88 1.26, 32 0" stroke="#000000" stroke-width="1" fill="none"></path></g><g transform="translate(795.3676568036972 934.1363009648674) rotate(0 270.5 41.5)"><text x="270.5" y="33.5" font-family="Helvetica, Segoe UI Emoji" font-size="36px" fill="#000000" text-anchor="middle" style="white-space: pre;" direction="ltr">Distribute computing similarity for </text><text x="270.5" y="75" font-family="Helvetica, Segoe UI Emoji" font-size="36px" fill="#000000" text-anchor="middle" style="white-space: pre;" direction="ltr">all other stocks wr target stock</text></g><g stroke-linecap="round"><g transform="translate(612.2138315199609 970.1383464917067) rotate(0 57.60852729440285 0.6101857306157683)"><path d="M0.91 -1.07 C20.31 -0.91, 96.1 0.58, 115.29 0.83 M-0.07 0.98 C19.25 1.35, 94.99 2.21, 114.28 2.29" stroke="#000000" stroke-width="1" fill="none"></path></g><g transform="translate(612.2138315199609 970.1383464917067) rotate(0 57.60852729440285 0.6101857306157683)"><path d="M84.22 12.12 C91.68 11.11, 96.9 9.17, 114.41 0.64 M85.79 13.07 C95.87 8.84, 105.22 5.27, 113.79 2.95" stroke="#000000" stroke-width="1" fill="none"></path></g><g transform="translate(612.2138315199609 970.1383464917067) rotate(0 57.60852729440285 0.6101857306157683)"><path d="M84.39 -8.4 C91.79 -5.13, 96.97 -2.79, 114.41 0.64 M85.97 -7.45 C96.1 -4.85, 105.4 -1.58, 113.79 2.95" stroke="#000000" stroke-width="1" fill="none"></path></g></g><mask></mask><g transform="translate(1585.6371188161593 582.0771888154004) rotate(0 62.5 23)"><text x="62.5" y="32" font-family="Virgil, Segoe UI Emoji" font-size="36px" fill="#000000" text-anchor="middle" style="white-space: pre;" direction="ltr">stock 1</text></g><g stroke-linecap="round" transform="translate(1836.048459162581 786.3046741978752) rotate(0 301.51278996840483 72.5816311940091)"><path d="M32 0 M32 0 C223.23 0.44, 412.85 0.26, 571.03 0 M32 0 C173.93 1.66, 315.16 1.67, 571.03 0 M571.03 0 C591.33 -1.29, 602.88 9.88, 603.03 32 M571.03 0 C593.29 0.27, 603.35 12.66, 603.03 32 M603.03 32 C605.24 54.98, 601.34 78.57, 603.03 113.16 M603.03 32 C602.13 57.9, 602.07 86.11, 603.03 113.16 M603.03 113.16 C604.28 135.98, 591.47 145.63, 571.03 145.16 M603.03 113.16 C603.59 134.51, 590.95 143.47, 571.03 145.16 M571.03 145.16 C378.68 144.15, 188.01 144.19, 32 145.16 M571.03 145.16 C370.22 147.36, 168.48 146.81, 32 145.16 M32 145.16 C12.15 146.65, -1.33 132.7, 0 113.16 M32 145.16 C10.18 145.85, 1.64 134, 0 113.16 M0 113.16 C-2.06 89.24, 1.09 65.32, 0 32 M0 113.16 C0.84 92.49, 1.35 74.07, 0 32 M0 32 C0.08 11.89, 11.13 -1.97, 32 0 M0 32 C2.06 9.96, 10.74 0.84, 32 0" stroke="#000000" stroke-width="1" fill="none"></path></g><g transform="translate(1583.1907332828378 838.386507712052) rotate(0 70.5 23)"><text x="70.5" y="32" font-family="Virgil, Segoe UI Emoji" font-size="36px" fill="#000000" text-anchor="middle" style="white-space: pre;" direction="ltr">stock 2</text></g><g stroke-linecap="round" transform="translate(1831.0208162754134 1039.1179559041652) rotate(0 301.51278996840483 72.5816311940091)"><path d="M32 0 M32 0 C238.21 0.86, 445.27 0.92, 571.03 0 M32 0 C142.6 0.31, 252.82 0.2, 571.03 0 M571.03 0 C591.19 -0.36, 602.93 8.83, 603.03 32 M571.03 0 C592.47 -0.78, 602.07 12.77, 603.03 32 M603.03 32 C603.56 59.12, 602.11 87.82, 603.03 113.16 M603.03 32 C603.61 49.83, 602.01 65.42, 603.03 113.16 M603.03 113.16 C603.63 134.72, 591.76 143.42, 571.03 145.16 M603.03 113.16 C604.33 133.6, 591.92 147.4, 571.03 145.16 M571.03 145.16 C442.62 145.99, 313.22 146.9, 32 145.16 M571.03 145.16 C419.7 145.52, 267.96 145.41, 32 145.16 M32 145.16 C11.04 145.88, 0.91 135.66, 0 113.16 M32 145.16 C11.97 145.88, -1.18 135.6, 0 113.16 M0 113.16 C1.75 95.64, -0.2 76.76, 0 32 M0 113.16 C0.15 81.79, -0.27 51.26, 0 32 M0 32 C-1.94 12.47, 8.74 0.73, 32 0 M0 32 C0.17 11.65, 8.82 0.03, 32 0" stroke="#000000" stroke-width="1" fill="none"></path></g><g transform="translate(1592.968653277101 1087.9487646309235) rotate(0 70 23)"><text x="70" y="32" font-family="Virgil, Segoe UI Emoji" font-size="36px" fill="#000000" text-anchor="middle" style="white-space: pre;" direction="ltr">stock 3</text></g><g stroke-linecap="round" transform="translate(1836.1897876148887 1299.932341564584) rotate(0 301.51278996840483 72.5816311940091)"><path d="M32 0 M32 0 C171.23 0.07, 310.92 0.69, 571.03 0 M32 0 C184.57 0.15, 336.71 0.25, 571.03 0 M571.03 0 C592.27 -1.83, 603.12 9.99, 603.03 32 M571.03 0 C591.41 2.1, 603.96 9.46, 603.03 32 M603.03 32 C602.92 53.57, 601.58 73.4, 603.03 113.16 M603.03 32 C602.94 59.03, 604.01 86.94, 603.03 113.16 M603.03 113.16 C602.43 132.75, 593.5 144.39, 571.03 145.16 M603.03 113.16 C602.59 136.73, 590.96 145.86, 571.03 145.16 M571.03 145.16 C376.31 144.26, 181.54 143.06, 32 145.16 M571.03 145.16 C398.87 144.7, 227.06 145.01, 32 145.16 M32 145.16 C11.58 146.32, 1.13 135.12, 0 113.16 M32 145.16 C9.48 146.27, -1.53 132.44, 0 113.16 M0 113.16 C-1.34 84.97, 1.14 54.35, 0 32 M0 113.16 C-0.35 81.89, -1.27 52.72, 0 32 M0 32 C-1.93 11.39, 10.81 0.85, 32 0 M0 32 C-1.85 10.69, 10 -1.09, 32 0" stroke="#000000" stroke-width="1" fill="none"></path></g><g transform="translate(1605.2469471115255 1342.5403621650166) rotate(0 66.5 23)"><text x="66.5" y="32" font-family="Virgil, Segoe UI Emoji" font-size="36px" fill="#000000" text-anchor="middle" style="white-space: pre;" direction="ltr">stock n</text></g><g transform="translate(1900.713867858518 553.7564256426706) rotate(0 176 21)"><text x="176" y="33" font-family="Helvetica, Segoe UI Emoji" font-size="36px" fill="#000000" text-anchor="middle" style="white-space: pre;" direction="ltr">Get metric time series</text></g><g transform="translate(1923.2233944255386 834.5246298418472) rotate(0 176 21)"><text x="176" y="33" font-family="Helvetica, Segoe UI Emoji" font-size="36px" fill="#000000" text-anchor="middle" style="white-space: pre;" direction="ltr">Get metric time series</text></g><g transform="translate(1916.5211196612 1085.965315183271) rotate(0 176 21)"><text x="176" y="33" font-family="Helvetica, Segoe UI Emoji" font-size="36px" fill="#000000" text-anchor="middle" style="white-space: pre;" direction="ltr">Get metric time series</text></g><g transform="translate(1941.2541996484706 1345.7838439801196) rotate(0 176 21)"><text x="176" y="33" font-family="Helvetica, Segoe UI Emoji" font-size="36px" fill="#000000" text-anchor="middle" style="white-space: pre;" direction="ltr">Get metric time series</text></g><g stroke-linecap="round" transform="translate(3020.0063500999786 827.4720269760103) rotate(0 131.13169187116546 146.9178673381166)"><path d="M165 36.75 M165 36.75 C182.51 57.87, 196.89 76.23, 229.26 110.25 M165 36.75 C190.51 67.07, 215.73 95.03, 229.26 110.25 M229.26 110.25 C263.18 147.12, 260.71 146.25, 229.26 183.75 M229.26 110.25 C262.99 147.29, 264.41 147.08, 229.26 183.75 M229.26 183.75 C207.82 207.43, 187.03 230.94, 165 257.09 M229.26 183.75 C209.54 206.02, 189.12 227.52, 165 257.09 M165 257.09 C132.56 292.74, 130.5 292.74, 99 257.09 M165 257.09 C133.77 294.69, 129.78 294.42, 99 257.09 M99 257.09 C79.01 234.06, 55.74 209.84, 33 183.75 M99 257.09 C81.91 238.22, 65.75 217.77, 33 183.75 M33 183.75 C-0.07 145.93, -0.24 148.33, 33 110.25 M33 183.75 C-0.72 148.15, 1.4 144.85, 33 110.25 M33 110.25 C57.6 82.84, 83.99 51.82, 99 36.75 M33 110.25 C46.36 95.95, 58.57 80.32, 99 36.75 M99 36.75 C133.18 -1.34, 130.53 0.74, 165 36.75 M99 36.75 C131.19 -0.79, 129.74 1.83, 165 36.75" stroke="#000000" stroke-width="1" fill="none"></path></g><g transform="translate(3038.138041971144 953.3898943141269) rotate(0 113 21)"><text x="113" y="33" font-family="Helvetica, Segoe UI Emoji" font-size="36px" fill="#000000" text-anchor="middle" style="white-space: pre;" direction="ltr">DB instance 1</text></g><g stroke-linecap="round" transform="translate(2961.5458638497093 10) rotate(0 131.13169187116546 146.9178673381166)"><path d="M165 36.75 M165 36.75 C180.26 54.61, 191.94 70.1, 229.26 110.25 M165 36.75 C180.42 54.93, 197.18 71.6, 229.26 110.25 M229.26 110.25 C264.11 147.28, 262.75 145.81, 229.26 183.75 M229.26 110.25 C264.1 146.2, 261.59 144.73, 229.26 183.75 M229.26 183.75 C209.55 206.38, 186.8 233.2, 165 257.09 M229.26 183.75 C213.41 200.71, 197.82 218.92, 165 257.09 M165 257.09 C131.61 294.82, 133.74 293.36, 99 257.09 M165 257.09 C131.49 294.14, 132.22 295.86, 99 257.09 M99 257.09 C81.36 237.24, 64.39 218.22, 33 183.75 M99 257.09 C76.74 231.73, 54.13 205.95, 33 183.75 M33 183.75 C0.5 147.34, -1.65 146.35, 33 110.25 M33 183.75 C-1.15 145.44, -1.74 147, 33 110.25 M33 110.25 C50.9 90.42, 71.14 68.31, 99 36.75 M33 110.25 C49.06 92.83, 62.83 77.22, 99 36.75 M99 36.75 C132.43 -0.36, 132.28 1.44, 165 36.75 M99 36.75 C130.38 -0.26, 130.15 -1.64, 165 36.75" stroke="#000000" stroke-width="1" fill="none"></path></g><g transform="translate(2979.677555720873 135.9178673381166) rotate(0 113 21)"><text x="113" y="33" font-family="Helvetica, Segoe UI Emoji" font-size="36px" fill="#000000" text-anchor="middle" style="white-space: pre;" direction="ltr">DB instance 1</text></g><g stroke-linecap="round" transform="translate(2990.1675277804425 415.27685988518306) rotate(0 131.13169187116546 146.9178673381166)"><path d="M165 36.75 M165 36.75 C178.49 54.5, 191.27 71.45, 229.26 110.25 M165 36.75 C183.62 56.93, 200.04 76.15, 229.26 110.25 M229.26 110.25 C260.88 146.64, 262.67 146.04, 229.26 183.75 M229.26 110.25 C263.37 148, 261.37 145.73, 229.26 183.75 M229.26 183.75 C205.77 208.67, 182.03 236.4, 165 257.09 M229.26 183.75 C204.12 212.83, 180.52 239.06, 165 257.09 M165 257.09 C133.12 294.12, 130.78 292.34, 99 257.09 M165 257.09 C130.56 295.23, 132.24 294.18, 99 257.09 M99 257.09 C84.74 239.99, 72.54 225.61, 33 183.75 M99 257.09 C79.43 235.14, 58.39 213.83, 33 183.75 M33 183.75 C-1.34 147.94, 1.66 147.16, 33 110.25 M33 183.75 C-0.36 148.8, -1.07 146.09, 33 110.25 M33 110.25 C54.97 85.79, 77.48 60.96, 99 36.75 M33 110.25 C45.7 95.73, 59.04 80.97, 99 36.75 M99 36.75 C131.92 -0.82, 130.06 -1.12, 165 36.75 M99 36.75 C131.31 0.86, 130.13 -1.03, 165 36.75" stroke="#000000" stroke-width="1" fill="none"></path></g><g transform="translate(3008.299219651606 541.1947272232997) rotate(0 113 21)"><text x="113" y="33" font-family="Helvetica, Segoe UI Emoji" font-size="36px" fill="#000000" text-anchor="middle" style="white-space: pre;" direction="ltr">DB instance 1</text></g><g stroke-linecap="round" transform="translate(3039.4966915727 1219.4339117593966) rotate(0 131.13169187116546 146.9178673381166)"><path d="M165 36.75 M165 36.75 C182.04 56.19, 196.07 72.93, 229.26 110.25 M165 36.75 C185.05 58.46, 204.58 82.6, 229.26 110.25 M229.26 110.25 C263.03 146.63, 263.83 146.51, 229.26 183.75 M229.26 110.25 C262.32 148.4, 263.35 147.73, 229.26 183.75 M229.26 183.75 C214.44 199.62, 198.39 217.43, 165 257.09 M229.26 183.75 C213.27 204.04, 194.8 222.57, 165 257.09 M165 257.09 C131.17 294.46, 133.86 294.45, 99 257.09 M165 257.09 C131.19 292.63, 132 292.76, 99 257.09 M99 257.09 C76.44 230.4, 54.47 205.18, 33 183.75 M99 257.09 C81.69 239.19, 65.87 220.1, 33 183.75 M33 183.75 C1.95 147.02, -1.39 145.36, 33 110.25 M33 183.75 C1.63 148.16, -0.43 148.16, 33 110.25 M33 110.25 C54.41 87, 70.49 65.64, 99 36.75 M33 110.25 C55.22 83.21, 78.99 57.21, 99 36.75 M99 36.75 C133.61 1.8, 131.66 -0.03, 165 36.75 M99 36.75 C134.22 -1.69, 133.55 0.22, 165 36.75" stroke="#000000" stroke-width="1" fill="none"></path></g><g transform="translate(3057.62838344386 1345.3517790975131) rotate(0 113 21)"><text x="113" y="33" font-family="Helvetica, Segoe UI Emoji" font-size="36px" fill="#000000" text-anchor="middle" style="white-space: pre;" direction="ltr">DB instance 1</text></g><g stroke-linecap="round" transform="translate(2567.4131164854207 785.5933478667555) rotate(0 160.49629663662563 166.96673170785925)"><path d="M32 0 M32 0 C103.17 2.59, 175.3 1.04, 288.99 0 M32 0 C86.47 0.88, 140.43 1.23, 288.99 0 M288.99 0 C310.39 0.19, 322.24 10.29, 320.99 32 M288.99 0 C310.59 1.99, 322.2 12.35, 320.99 32 M320.99 32 C323.75 95.27, 323.68 159.54, 320.99 301.93 M320.99 32 C319.91 124.57, 319.56 216.27, 320.99 301.93 M320.99 301.93 C319.77 323.09, 311.95 334.33, 288.99 333.93 M320.99 301.93 C318.89 324.84, 309.78 334.82, 288.99 333.93 M288.99 333.93 C188.61 334.21, 86.18 332.74, 32 333.93 M288.99 333.93 C220.33 333.09, 150.48 332.7, 32 333.93 M32 333.93 C11.59 335.71, 1.47 322.14, 0 301.93 M32 333.93 C10.17 332.61, -0.65 325.34, 0 301.93 M0 301.93 C0.48 240.59, 2.23 176.77, 0 32 M0 301.93 C0.16 206.84, 0.98 111.13, 0 32 M0 32 C-0.23 9.57, 11.46 0.06, 32 0 M0 32 C-0.19 12.62, 8.7 -1.3, 32 0" stroke="#000000" stroke-width="1" fill="none"></path></g><g transform="translate(2642.3467910753407 863.3572594501179) rotate(0 72 83)"><text x="72" y="33.5" font-family="Helvetica, Segoe UI Emoji" font-size="36px" fill="#000000" text-anchor="middle" style="white-space: pre;" direction="ltr">DB</text><text x="72" y="75" font-family="Helvetica, Segoe UI Emoji" font-size="36px" fill="#000000" text-anchor="middle" style="white-space: pre;" direction="ltr">Replicas</text><text x="72" y="116.5" font-family="Helvetica, Segoe UI Emoji" font-size="36px" fill="#000000" text-anchor="middle" style="white-space: pre;" direction="ltr">Load</text><text x="72" y="158" font-family="Helvetica, Segoe UI Emoji" font-size="36px" fill="#000000" text-anchor="middle" style="white-space: pre;" direction="ltr">Balancer</text></g><g stroke-linecap="round"><g transform="translate(2440.9234875603106 560.8669180718741) rotate(0 62.649901371495616 155.2258186439533)"><path d="M0.34 1.07 C21.31 52.47, 105.32 257.2, 126.24 308.5 M-0.95 0.59 C19.91 52.16, 104.68 258.26, 125.72 309.86" stroke="#000000" stroke-width="1" fill="none"></path></g><g transform="translate(2440.9234875603106 560.8669180718741) rotate(0 62.649901371495616 155.2258186439533)"><path d="M107.33 289.01 C111.69 295.7, 119.01 301.25, 125.87 308.87 M105.94 288.36 C111.76 294.06, 118.65 302.38, 126.71 309.22" stroke="#000000" stroke-width="1" fill="none"></path></g><g transform="translate(2440.9234875603106 560.8669180718741) rotate(0 62.649901371495616 155.2258186439533)"><path d="M126.32 281.23 C124.38 290.56, 125.4 298.69, 125.87 308.87 M124.93 280.58 C124.79 288.93, 125.65 299.72, 126.71 309.22" stroke="#000000" stroke-width="1" fill="none"></path></g></g><mask></mask><g stroke-linecap="round"><g transform="translate(2455.3708223144586 857.8128063277456) rotate(0 48.989091387336885 34.32536271846607)"><path d="M0.47 0.43 C17.06 11.83, 82.41 57.71, 98.72 69.05 M-0.74 -0.4 C15.84 10.58, 81.8 55.47, 98.23 67.15" stroke="#000000" stroke-width="1" fill="none"></path></g><g transform="translate(2455.3708223144586 857.8128063277456) rotate(0 48.989091387336885 34.32536271846607)"><path d="M69.93 61 C76.73 62.05, 82.47 61.92, 100.13 67.31 M69.77 60.32 C80.67 62.49, 90.69 65.84, 98.2 67.84" stroke="#000000" stroke-width="1" fill="none"></path></g><g transform="translate(2455.3708223144586 857.8128063277456) rotate(0 48.989091387336885 34.32536271846607)"><path d="M81.62 44.13 C85.78 49.16, 88.8 52.95, 100.13 67.31 M81.45 43.45 C87.9 52.14, 93.47 61.91, 98.2 67.84" stroke="#000000" stroke-width="1" fill="none"></path></g></g><mask></mask><g stroke-linecap="round"><g transform="translate(2446.7855599282975 1102.3207022663187) rotate(0 53.549063151396695 -58.89332340594609)"><path d="M0.73 0.66 C18.11 -19.16, 87.77 -98.5, 105.34 -118.45 M-0.35 -0.04 C17.29 -19.7, 89.86 -97.28, 107.44 -116.95" stroke="#000000" stroke-width="1" fill="none"></path></g><g transform="translate(2446.7855599282975 1102.3207022663187) rotate(0 53.549063151396695 -58.89332340594609)"><path d="M97.05 -91.16 C100.2 -100.74, 103.7 -110.09, 106.17 -117.47 M96.05 -88.63 C98.81 -97.37, 101.31 -103, 107.13 -117.71" stroke="#000000" stroke-width="1" fill="none"></path></g><g transform="translate(2446.7855599282975 1102.3207022663187) rotate(0 53.549063151396695 -58.89332340594609)"><path d="M81.93 -105.03 C91.03 -109.29, 100.43 -113.23, 106.17 -117.47 M80.93 -102.5 C87.59 -107.78, 93.99 -109.84, 107.13 -117.71" stroke="#000000" stroke-width="1" fill="none"></path></g></g><mask></mask><g stroke-linecap="round"><g transform="translate(2449.755109106258 1359.3499388219868) rotate(0 54.91196682293776 -149.48555657324525)"><path d="M-1.14 1.07 C17.3 -49.02, 92.49 -249.71, 110.96 -300.04 M0.47 0.59 C18.82 -49.34, 92.53 -248.33, 110.6 -298.43" stroke="#000000" stroke-width="1" fill="none"></path></g><g transform="translate(2449.755109106258 1359.3499388219868) rotate(0 54.91196682293776 -149.48555657324525)"><path d="M112.33 -266.58 C110.66 -278.52, 109.23 -288.97, 110.14 -297.2 M110.79 -268.23 C110 -278.08, 109.96 -289.6, 111.21 -299.23" stroke="#000000" stroke-width="1" fill="none"></path></g><g transform="translate(2449.755109106258 1359.3499388219868) rotate(0 54.91196682293776 -149.48555657324525)"><path d="M93.06 -273.64 C97.74 -283.09, 102.61 -291.22, 110.14 -297.2 M91.52 -275.29 C97.37 -282.7, 103.91 -291.8, 111.21 -299.23" stroke="#000000" stroke-width="1" fill="none"></path></g></g><mask></mask><g stroke-linecap="round"><g transform="translate(2913.056910342595 898.2585459076063) rotate(0 64.7923884189695 -116.84593180032118)"><path d="M0.47 1.15 C22.39 -38.14, 108.96 -195.55, 130.32 -234.84 M-0.74 0.7 C21.21 -38.46, 108.53 -194.33, 129.9 -233.3" stroke="#000000" stroke-width="1" fill="none"></path></g><g transform="translate(2913.056910342595 898.2585459076063) rotate(0 64.7923884189695 -116.84593180032118)"><path d="M127.1 -201.99 C125.93 -210.86, 127.35 -216.98, 130.01 -234.59 M124.86 -204.42 C126.32 -211.17, 127.15 -217.21, 128.95 -232.98" stroke="#000000" stroke-width="1" fill="none"></path></g><g transform="translate(2913.056910342595 898.2585459076063) rotate(0 64.7923884189695 -116.84593180032118)"><path d="M109.16 -211.95 C111.72 -218.86, 116.79 -222.95, 130.01 -234.59 M106.92 -214.38 C112.31 -219.1, 117.1 -222.94, 128.95 -232.98" stroke="#000000" stroke-width="1" fill="none"></path></g></g><mask></mask><g stroke-linecap="round"><g transform="translate(2853.6207543451346 773.1412290050225) rotate(0 97.2720097968313 -248.23237924534936)"><path d="M-0.98 0.23 C31.77 -82.29, 162.73 -412.17, 195.52 -495.06 M0.71 -0.7 C33.35 -83.54, 162.05 -414.07, 194.43 -496.69" stroke="#000000" stroke-width="1" fill="none"></path></g><g transform="translate(2853.6207543451346 773.1412290050225) rotate(0 97.2720097968313 -248.23237924534936)"><path d="M194.12 -467.16 C195.44 -473.33, 192.11 -481.9, 195.56 -497.91 M193.2 -467.4 C194.21 -474.37, 193.53 -481.68, 193.99 -496.97" stroke="#000000" stroke-width="1" fill="none"></path></g><g transform="translate(2853.6207543451346 773.1412290050225) rotate(0 97.2720097968313 -248.23237924534936)"><path d="M175 -474.63 C180.55 -478.99, 181.44 -485.92, 195.56 -497.91 M174.09 -474.86 C180.05 -479.95, 184.4 -485.3, 193.99 -496.97" stroke="#000000" stroke-width="1" fill="none"></path></g></g><mask></mask><g stroke-linecap="round"><g transform="translate(2909.688088482002 1026.0590973930507) rotate(0 92.91125089530578 24.54629392339399)"><path d="M-0.93 0.81 C30.3 8.97, 155.46 39.95, 186.75 47.87 M0.78 0.2 C31.98 8.57, 155.24 40.7, 186.2 48.9" stroke="#000000" stroke-width="1" fill="none"></path></g><g transform="translate(2909.688088482002 1026.0590973930507) rotate(0 92.91125089530578 24.54629392339399)"><path d="M157.68 52.9 C162.11 52.61, 170.28 48.93, 187.97 50.49 M155.84 52.47 C165.77 50.14, 175.77 49.54, 186.11 49.66" stroke="#000000" stroke-width="1" fill="none"></path></g><g transform="translate(2909.688088482002 1026.0590973930507) rotate(0 92.91125089530578 24.54629392339399)"><path d="M162.89 33.05 C165.85 37.63, 172.74 38.84, 187.97 50.49 M161.05 32.63 C169.3 37.05, 177.54 43.17, 186.11 49.66" stroke="#000000" stroke-width="1" fill="none"></path></g></g><mask></mask><g stroke-linecap="round"><g transform="translate(2900.6969886941915 1103.6323531790845) rotate(0 94.68639116314625 88.89056884448372)"><path d="M1.05 -0.56 C32.78 29, 158.03 147.36, 189.23 177.31 M0.15 1.76 C31.82 31.45, 156.57 149.09, 188.33 178.34" stroke="#000000" stroke-width="1" fill="none"></path></g><g transform="translate(2900.6969886941915 1103.6323531790845) rotate(0 94.68639116314625 88.89056884448372)"><path d="M159.78 166.77 C164.82 167.33, 173.61 173.08, 189.47 179.69 M161.47 166.7 C169.8 170.39, 177.27 172.67, 189.11 177.74" stroke="#000000" stroke-width="1" fill="none"></path></g><g transform="translate(2900.6969886941915 1103.6323531790845) rotate(0 94.68639116314625 88.89056884448372)"><path d="M173.79 151.77 C175.92 155.55, 181.81 164.4, 189.47 179.69 M175.48 151.7 C179.52 159.96, 182.79 166.75, 189.11 177.74" stroke="#000000" stroke-width="1" fill="none"></path></g></g><mask></mask><g stroke-linecap="round" transform="translate(3523.451512763784 591.2221106169708) rotate(0 301.51278996840483 72.5816311940091)"><path d="M32 0 M32 0 C169.51 1.91, 309.22 1.85, 571.03 0 M32 0 C244.51 -1.2, 457.73 -1.2, 571.03 0 M571.03 0 C591.16 -1.36, 602.85 10.21, 603.03 32 M571.03 0 C593.12 -0.39, 601.19 12.72, 603.03 32 M603.03 32 C603.25 60.38, 604.17 90.59, 603.03 113.16 M603.03 32 C602.83 57.24, 604.17 81.8, 603.03 113.16 M603.03 113.16 C601.83 136.31, 591.23 144.35, 571.03 145.16 M603.03 113.16 C605.25 136.71, 593.91 145.02, 571.03 145.16 M571.03 145.16 C397.84 144.19, 226.11 143.2, 32 145.16 M571.03 145.16 C368.25 145.22, 165.79 145.27, 32 145.16 M32 145.16 C9.05 144.18, 0.27 136.15, 0 113.16 M32 145.16 C10.86 144.86, 0.77 134.8, 0 113.16 M0 113.16 C1.74 93.82, -0.85 71.23, 0 32 M0 113.16 C1.08 91.35, 0.19 70.27, 0 32 M0 32 C-1.73 10.44, 11.28 -0.82, 32 0 M0 32 C0.17 11.56, 10.23 0.8, 32 0" stroke="#000000" stroke-width="1" fill="none"></path></g><g transform="translate(3566.8946083336305 641.8238945193816) rotate(0 219.5 41.5)"><text x="219.5" y="33.5" font-family="Helvetica, Segoe UI Emoji" font-size="36px" fill="#000000" text-anchor="middle" style="white-space: pre;" direction="ltr">calculate similarity between</text><text x="219.5" y="75" font-family="Helvetica, Segoe UI Emoji" font-size="36px" fill="#000000" text-anchor="middle" style="white-space: pre;" direction="ltr">target and stock 1</text></g><g mask="url(#mask-F5ICFVbJ-wYFGUlhKJQrT)" stroke-linecap="round"><g transform="translate(1413.452120385582 921.7359385593729) rotate(0 197.64067828516272 -171.3682262001616)"><path d="M-0.26 -1.08 C65.7 -58.52, 329.38 -286.68, 395.54 -343.71 M1.81 0.97 C67.61 -56.35, 328.67 -284.48, 394.43 -342.21" stroke="#000000" stroke-width="1" fill="none"></path></g><g transform="translate(1413.452120385582 921.7359385593729) rotate(0 197.64067828516272 -171.3682262001616)"><path d="M378.18 -316.45 C383.69 -321.89, 388.46 -328.65, 392.67 -342.97 M379.55 -315.2 C384.3 -324.64, 390.2 -334.88, 395.02 -342.06" stroke="#000000" stroke-width="1" fill="none"></path></g><g transform="translate(1413.452120385582 921.7359385593729) rotate(0 197.64067828516272 -171.3682262001616)"><path d="M364.66 -331.89 C374.07 -332.98, 382.64 -335.41, 392.67 -342.97 M366.03 -330.64 C375.52 -334.7, 386.09 -339.61, 395.02 -342.06" stroke="#000000" stroke-width="1" fill="none"></path></g></g><mask id="mask-F5ICFVbJ-wYFGUlhKJQrT"><rect x="0" y="0" fill="#fff" width="1909.3078581963637" height="1365.3645164140735"></rect><rect x="1475.879989290972" y="707.9216496320226" fill="#000" width="271" height="84" opacity="1"></rect></mask><g transform="translate(1475.879989290972 707.9216496320226) rotate(0 135.2128093797728 42.44606272718869)"><text x="135.5" y="33" font-family="Helvetica, Segoe UI Emoji" font-size="36px" fill="#000000" text-anchor="middle" style="white-space: pre;" direction="ltr">broadcast target </text><text x="135.5" y="75" font-family="Helvetica, Segoe UI Emoji" font-size="36px" fill="#000000" text-anchor="middle" style="white-space: pre;" direction="ltr">stock time series</text></g><g stroke-linecap="round"><g transform="translate(1408.857479194934 980.7918312942154) rotate(0 203.4573214503307 -45.45155064650581)"><path d="M1.16 -0.46 C68.54 -15.5, 336.93 -75.68, 404.41 -90.44 M0.31 -1.75 C68.05 -16.64, 339.05 -74.5, 406.6 -89.4" stroke="#000000" stroke-width="1" fill="none"></path></g><g transform="translate(1408.857479194934 980.7918312942154) rotate(0 203.4573214503307 -45.45155064650581)"><path d="M380.45 -75.05 C387.52 -77.53, 397.73 -83.94, 405.61 -89.54 M381.02 -74.17 C387.46 -78.34, 395.79 -81.54, 405.61 -90.01" stroke="#000000" stroke-width="1" fill="none"></path></g><g transform="translate(1408.857479194934 980.7918312942154) rotate(0 203.4573214503307 -45.45155064650581)"><path d="M376.1 -95.1 C384.48 -91.43, 396.03 -91.64, 405.61 -89.54 M376.68 -94.23 C384.36 -92.91, 393.88 -90.6, 405.61 -90.01" stroke="#000000" stroke-width="1" fill="none"></path></g></g><mask></mask><g stroke-linecap="round"><g transform="translate(1395.4845441698599 998.4854151453574) rotate(0 209.99115481479384 51.66986293929318)"><path d="M-0.98 1.04 C68.98 17.82, 350.4 84.93, 420.96 101.61 M0.71 0.54 C70.39 17.38, 349.62 85.91, 419.88 102.8" stroke="#000000" stroke-width="1" fill="none"></path></g><g transform="translate(1395.4845441698599 998.4854151453574) rotate(0 209.99115481479384 51.66986293929318)"><path d="M391.79 105.68 C400.8 106.99, 411.91 103.04, 417.98 104.16 M391.05 105.87 C399.2 104.76, 407.66 103.74, 420.42 103.43" stroke="#000000" stroke-width="1" fill="none"></path></g><g transform="translate(1395.4845441698599 998.4854151453574) rotate(0 209.99115481479384 51.66986293929318)"><path d="M396.64 85.74 C403.87 94.95, 413.05 98.95, 417.98 104.16 M395.9 85.93 C402.47 90.53, 409.54 95.22, 420.42 103.43" stroke="#000000" stroke-width="1" fill="none"></path></g></g><mask></mask><g stroke-linecap="round"><g transform="translate(1378.1071053547712 1054.906765913085) rotate(0 227.40488869958608 151.97980437626052)"><path d="M0.21 0.53 C75.92 51.12, 378.22 253.74, 453.82 304.19 M-1.14 -0.23 C74.96 49.97, 379.75 251.71, 455.95 302.5" stroke="#000000" stroke-width="1" fill="none"></path></g><g transform="translate(1378.1071053547712 1054.906765913085) rotate(0 227.40488869958608 151.97980437626052)"><path d="M427.68 293.61 C435.84 295.35, 441.94 300.09, 456.52 304.13 M426.15 295.32 C438.74 299.32, 448.32 301.77, 455.52 301.63" stroke="#000000" stroke-width="1" fill="none"></path></g><g transform="translate(1378.1071053547712 1054.906765913085) rotate(0 227.40488869958608 151.97980437626052)"><path d="M439.03 276.52 C444.3 282.77, 447.41 292, 456.52 304.13 M437.5 278.22 C445.92 288.61, 451.2 297.52, 455.52 301.63" stroke="#000000" stroke-width="1" fill="none"></path></g></g><mask></mask><g stroke-linecap="round" transform="translate(3537.214359999987 902.6882001371353) rotate(0 301.51278996840483 72.5816311940091)"><path d="M32 0 M32 0 C211.27 0.15, 389.65 0.4, 571.03 0 M32 0 C236.58 0.81, 440.87 1.04, 571.03 0 M571.03 0 C594.34 -1.56, 601.42 11.15, 603.03 32 M571.03 0 C592.02 -2.13, 603.74 8.62, 603.03 32 M603.03 32 C604.96 61.65, 604.65 96.3, 603.03 113.16 M603.03 32 C603.8 51.78, 602.76 70.9, 603.03 113.16 M603.03 113.16 C602.27 133.36, 592.92 145.99, 571.03 145.16 M603.03 113.16 C604.06 136.11, 591.24 146.87, 571.03 145.16 M571.03 145.16 C360.17 145.47, 150.41 145.25, 32 145.16 M571.03 145.16 C373.34 146.32, 175.58 146.08, 32 145.16 M32 145.16 C9.31 146.75, 0.31 136.42, 0 113.16 M32 145.16 C8.45 147.08, 0.92 133.03, 0 113.16 M0 113.16 C0.1 83.42, 0.55 52.02, 0 32 M0 113.16 C-0.6 82.22, 0.26 49.53, 0 32 M0 32 C-0.09 11.13, 11.78 0.83, 32 0 M0 32 C-1.04 12.36, 11.71 -1.99, 32 0" stroke="#000000" stroke-width="1" fill="none"></path></g><g transform="translate(3566.725997647729 951.0242779478269) rotate(0 219.5 41.5)"><text x="219.5" y="33.5" font-family="Helvetica, Segoe UI Emoji" font-size="36px" fill="#000000" text-anchor="middle" style="white-space: pre;" direction="ltr">calculate similarity between</text><text x="219.5" y="75" font-family="Helvetica, Segoe UI Emoji" font-size="36px" fill="#000000" text-anchor="middle" style="white-space: pre;" direction="ltr">target and stock 2</text></g><g stroke-linecap="round" transform="translate(4328.3304291369805 590.4791697822434) rotate(0 112.92173779446875 226.91836871152066)"><path d="M32 0 M32 0 C93.16 1.84, 152.4 0.16, 193.84 0 M32 0 C73.48 1.41, 113.79 1.53, 193.84 0 M193.84 0 C214.09 -1.21, 225.42 12.59, 225.84 32 M193.84 0 C217.03 -1.53, 225.14 10.21, 225.84 32 M225.84 32 C228.01 174.1, 228.13 314.72, 225.84 421.84 M225.84 32 C223.85 150.41, 223.89 267.42, 225.84 421.84 M225.84 421.84 C227.39 444.42, 214.66 452.52, 193.84 453.84 M225.84 421.84 C223.81 444.68, 215.26 455.16, 193.84 453.84 M193.84 453.84 C142.88 453.77, 96.35 455.27, 32 453.84 M193.84 453.84 C156.58 453.38, 120.41 452.77, 32 453.84 M32 453.84 C11.52 454.09, 1.09 442.26, 0 421.84 M32 453.84 C12.16 454.72, 0.7 444.09, 0 421.84 M0 421.84 C0.19 310.41, 1.97 196.99, 0 32 M0 421.84 C1.56 289.93, 2.43 156.47, 0 32 M0 32 C-0.54 10.25, 12.2 1.03, 32 0 M0 32 C-1.43 12.65, 8.43 0.81, 32 0" stroke="#000000" stroke-width="1" fill="none"></path></g><g transform="translate(4341.786798623982 751.5894510372459) rotate(0 97.5 62.5)"><text x="97.5" y="32.666666666666664" font-family="Helvetica, Segoe UI Emoji" font-size="36px" fill="#000000" text-anchor="middle" style="white-space: pre;" direction="ltr">Max</text><text x="97.5" y="74.33333333333333" font-family="Helvetica, Segoe UI Emoji" font-size="36px" fill="#000000" text-anchor="middle" style="white-space: pre;" direction="ltr">Aggregation</text><text x="97.5" y="116" font-family="Helvetica, Segoe UI Emoji" font-size="36px" fill="#000000" text-anchor="middle" style="white-space: pre;" direction="ltr">Web app</text></g><g stroke-linecap="round"><g transform="translate(4150.456693685264 697.8525621939684) rotate(0 78.45510187316904 24.581093712933068)"><path d="M0.84 -0.75 C26.62 7.19, 128.94 40.15, 154.7 48.46 M-0.18 1.47 C25.99 9.53, 131.27 42.33, 157.09 49.91" stroke="#000000" stroke-width="1" fill="none"></path></g><g transform="translate(4150.456693685264 697.8525621939684) rotate(0 78.45510187316904 24.581093712933068)"><path d="M125.88 50.5 C135.95 51.01, 146.08 49.97, 158.68 51.54 M127.41 50.97 C136.54 52.06, 144.87 50.61, 157.58 50.74" stroke="#000000" stroke-width="1" fill="none"></path></g><g transform="translate(4150.456693685264 697.8525621939684) rotate(0 78.45510187316904 24.581093712933068)"><path d="M131.85 30.86 C140.24 37.38, 148.56 42.3, 158.68 51.54 M133.38 31.33 C140.89 37.95, 147.53 42.07, 157.58 50.74" stroke="#000000" stroke-width="1" fill="none"></path></g></g><mask></mask><g stroke-linecap="round"><g transform="translate(4158.434086761687 968.6624000776194) rotate(0 77.53945669015502 -59.38839522930857)"><path d="M1.14 -0.72 C27.04 -20.53, 129.03 -98.56, 154.8 -118.39 M0.28 1.52 C26.03 -18.7, 127.74 -100.24, 153.56 -120.3" stroke="#000000" stroke-width="1" fill="none"></path></g><g transform="translate(4158.434086761687 968.6624000776194) rotate(0 77.53945669015502 -59.38839522930857)"><path d="M136.62 -95.69 C142.32 -100.65, 144.1 -106.54, 152.08 -122.24 M137.66 -94.34 C142.62 -101.92, 146.47 -107.97, 152.88 -119.92" stroke="#000000" stroke-width="1" fill="none"></path></g><g transform="translate(4158.434086761687 968.6624000776194) rotate(0 77.53945669015502 -59.38839522930857)"><path d="M123.89 -111.79 C132.83 -112.85, 137.78 -114.72, 152.08 -122.24 M124.93 -110.44 C133.31 -113.78, 140.53 -115.56, 152.88 -119.92" stroke="#000000" stroke-width="1" fill="none"></path></g></g><mask></mask><g transform="translate(4124.194506155876 907.4594919796177) rotate(0 102 21)"><text x="102" y="33" font-family="Helvetica, Segoe UI Emoji" font-size="36px" fill="#000000" text-anchor="middle" style="white-space: pre;" direction="ltr">Post request</text></g></svg>
